<svg width="35" height="35" viewBox="0 0 35 35" fill="none" xmlns="http://www.w3.org/2000/svg">
<path fill-rule="evenodd" clip-rule="evenodd" d="M19.928 23.6513C17.251 23.4596 14.7893 22.1147 13.1817 19.9655C12.6717 19.2837 12.811 18.3176 13.4928 17.8076C14.1746 17.2976 15.1407 17.4369 15.6507 18.1187C16.7224 19.5514 18.3636 20.4481 20.1483 20.5759C21.9329 20.7037 23.6851 20.0501 24.9503 18.7845L29.5565 14.1786C31.8935 11.7589 31.8601 7.91273 29.4814 5.53404C27.1027 3.15535 23.2565 3.12193 20.8527 5.44332L18.2011 8.07957C17.5973 8.67987 16.6211 8.67702 16.0208 8.07321C15.4205 7.4694 15.4234 6.49327 16.0272 5.89297L18.6948 3.24112C22.3243 -0.264375 28.0936 -0.214242 31.6616 3.3538C35.2296 6.92183 35.2798 12.6911 31.7555 16.3397L27.1307 20.9645C25.2333 22.8626 22.605 23.8431 19.928 23.6513ZM15.0713 11.3496C17.7483 11.5413 20.21 12.8863 21.8176 15.0354C22.3276 15.7172 22.1883 16.6833 21.5065 17.1933C20.8247 17.7033 19.8586 17.564 19.3486 16.8822C18.2769 15.4495 16.6357 14.5528 14.851 14.425C13.0664 14.2972 11.3142 14.9508 10.049 16.2164L5.44283 20.8223C3.10583 23.242 3.13925 27.0882 5.51794 29.4669C7.89664 31.8456 11.7428 31.879 14.1434 29.5608L16.7796 26.9245C17.3817 26.3225 18.3578 26.3225 18.9599 26.9245C19.5619 27.5266 19.5619 28.5027 18.9599 29.1048L16.3045 31.7598C12.675 35.2653 6.90574 35.2152 3.3377 31.6471C-0.230338 28.0791 -0.280472 22.3098 3.2438 18.6612L7.8686 14.0364C9.76603 12.1383 12.3943 11.1579 15.0713 11.3496Z" fill="#252525"/>
</svg>
