<?xml version="1.0" encoding="utf-8"?>
<!-- Generator: Adobe Illustrator 23.0.3, SVG Export Plug-In . SVG Version: 6.00 Build 0)  -->
<svg version="1.1" id="Layer_1" xmlns="http://www.w3.org/2000/svg" xmlnsXlink="http://www.w3.org/1999/xlink" x="0px" y="0px"
	 viewBox="0 0 100 100" style="enable-background:new 0 0 100 100;" xml:space="preserve">
<style type="text/css">
	.st0{fill:#FFFFFF;}
</style>
<g>
	<path class="st0" d="M47.5,51.1l0.1,0.2c0,0,0.1-0.1,0.1-0.1L47.5,51.1z M50,28.7L50,28.7L50,28.7L50,28.7L50,28.7z M52.3,51.2
		c0,0,0.1,0.1,0.1,0.1l0.1-0.2L52.3,51.2z M47.7,51.2c0,0-0.1,0.1-0.1,0.1l-0.1-0.2L47.7,51.2z M52.5,51.1l-0.1,0.2
		c0,0-0.1-0.1-0.1-0.1L52.5,51.1z M50,28.7L50,28.7L50,28.7L50,28.7L50,28.7z M47.5,51.1l0.1,0.2c0,0,0.1-0.1,0.1-0.1L47.5,51.1z
		 M52.3,51.2c0,0,0.1,0.1,0.1,0.1l0.1-0.2L52.3,51.2z M73,39.3c-0.5,0-0.9,0.1-1.3,0.2l-5.5-9.2l5.3-8c0.5,0.2,1,0.3,1.5,0.3
		c2.4,0,4.3-1.9,4.3-4.3S75.4,14,73,14c-1.3,0-2.4,0.5-3.2,1.4L54.1,6.5c0.1-0.4,0.2-0.8,0.2-1.2c0-2.4-1.9-4.3-4.3-4.3
		c-2.4,0-4.3,1.9-4.3,4.3c0,0.4,0.1,0.8,0.2,1.2l-15.7,8.9C29.4,14.5,28.3,14,27,14c-2.4,0-4.3,1.9-4.3,4.3s1.9,4.3,4.3,4.3
		c0.5,0,1-0.1,1.5-0.3l5.3,8l-5.5,9.2c-0.4-0.1-0.9-0.2-1.3-0.2c-2.4,0-4.3,1.9-4.3,4.3c0,2.4,1.9,4.3,4.3,4.3
		c1.4,0,2.7-0.7,3.5-1.8l15.3,6.4c0,0.2-0.1,0.5-0.1,0.7c0,2.4,1.9,4.3,4.3,4.3c2.4,0,4.3-1.9,4.3-4.3c0-0.3,0-0.5-0.1-0.7l15.3-6.4
		c0.8,1.1,2.1,1.8,3.5,1.8c2.4,0,4.3-1.9,4.3-4.3C77.3,41.2,75.4,39.3,73,39.3z M70,17.7c0.1-0.7,0.5-1.2,0.9-1.7
		c0.5-0.5,1.2-0.8,2-0.8c1.7,0,3,1.4,3,3c0,1.7-1.4,3-3,3c-0.3,0-0.5,0-0.8-0.1c-0.5-0.1-1-0.4-1.4-0.8c-0.1-0.1-0.2-0.2-0.2-0.3
		c-0.3-0.4-0.5-0.9-0.6-1.4c0-0.1,0-0.3,0-0.4C70,18.1,70,17.9,70,17.7z M69.9,21.3l-4.8,7.3l-2.4-4l7-3.5
		C69.7,21.1,69.8,21.2,69.9,21.3z M50,24.3c-1.8,0-3.4,0.9-4.4,2.2L40,23.7l8.6-14.4C49,9.5,49.5,9.5,50,9.5c0.5,0,1-0.1,1.4-0.2
		L60,23.7l-5.6,2.8C53.4,25.2,51.8,24.3,50,24.3z M50,28.7L50,28.7L50,28.7L50,28.7L50,28.7z M44.9,31.7l-5.7,3.4l-3.2-4.8l3-4.9
		l5.8,2.9c-0.1,0.5-0.2,1-0.2,1.6C44.5,30.5,44.7,31.1,44.9,31.7z M55.2,28.2l5.8-2.9l3,4.9l-3.2,4.8l-5.7-3.4
		c0.2-0.6,0.4-1.3,0.4-1.9C55.5,29.2,55.4,28.7,55.2,28.2z M53.2,8.1L53.2,8.1L68.9,17c-0.1,0.4-0.2,0.8-0.2,1.2c0,0.4,0,0.7,0.1,1
		l-7.1,3.5L53,8.3C53.1,8.2,53.1,8.2,53.2,8.1z M50,2.2c1.7,0,3,1.4,3,3c0,0.2,0,0.4-0.1,0.6c-0.1,0.5-0.3,0.9-0.6,1.3
		c-0.1,0.1-0.2,0.2-0.3,0.3c-0.4,0.3-0.8,0.6-1.3,0.7c-0.2,0.1-0.5,0.1-0.7,0.1c-0.3,0-0.5,0-0.7-0.1c-0.5-0.1-0.9-0.4-1.3-0.7
		c-0.1-0.1-0.2-0.2-0.3-0.3c-0.3-0.4-0.5-0.8-0.6-1.3C47,5.6,47,5.4,47,5.2C47,3.6,48.3,2.2,50,2.2z M46.8,8.1
		c0,0.1,0.1,0.1,0.1,0.2l-8.7,14.6l-7.1-3.5c0.1-0.3,0.1-0.7,0.1-1c0-0.4-0.1-0.8-0.2-1.2L46.8,8.1z M30,18.7
		c-0.1,0.5-0.3,1-0.6,1.4c-0.1,0.1-0.1,0.2-0.2,0.3c-0.4,0.4-0.8,0.6-1.4,0.8c-0.2,0.1-0.5,0.1-0.8,0.1c-1.7,0-3-1.4-3-3
		c0-1.7,1.4-3,3-3c0.8,0,1.5,0.3,2,0.8c0.5,0.4,0.8,1,0.9,1.7c0,0.2,0.1,0.4,0.1,0.6C30,18.4,30,18.6,30,18.7z M30.1,21.3
		c0.1-0.1,0.2-0.2,0.2-0.2l7,3.5l-2.4,4L30.1,21.3z M30,43.8c0,0.7-0.3,1.3-0.7,1.8c-0.6,0.6-1.4,1-2.3,1c-1.7,0-3-1.4-3-3
		c0-1.7,1.4-3,3-3c0.2,0,0.4,0,0.7,0.1v0c0.5,0.1,0.9,0.3,1.3,0.7c0.1,0.1,0.2,0.2,0.3,0.3c0.3,0.4,0.6,0.8,0.7,1.3
		c0,0.2,0.1,0.4,0.1,0.7C30,43.7,30,43.7,30,43.8z M30.1,40.6c0,0-0.1-0.1-0.1-0.1v0l5-8.4l2.6,4L30.1,40.6z M46.5,50.7l-15.3-6.4
		c0-0.2,0.1-0.5,0.1-0.7c0-0.5-0.1-0.9-0.2-1.3l7.6-4.5l8.3,12.5C46.8,50.4,46.6,50.5,46.5,50.7z M50,56.2c-1.7,0-3-1.4-3-3
		c0-0.1,0-0.2,0-0.2c0-0.6,0.3-1.2,0.6-1.6l-0.1-0.2l0.2,0.1c0.4-0.4,0.9-0.8,1.5-0.9c0.2-0.1,0.5-0.1,0.8-0.1c0.3,0,0.5,0,0.8,0.1
		c0.6,0.2,1.1,0.5,1.5,0.9l0.2-0.1l-0.1,0.2c0.4,0.5,0.6,1,0.6,1.6c0,0.1,0,0.2,0,0.2C53,54.9,51.7,56.2,50,56.2z M51.5,49.2
		c-0.5-0.2-1-0.3-1.5-0.3c-0.5,0-1,0.1-1.5,0.3l-8.2-12.5l5.6-3.4c1,1.1,2.5,1.9,4.1,1.9c1.6,0,3.1-0.7,4.1-1.9l5.6,3.4L51.5,49.2z
		 M68.8,44.3l-15.3,6.4c-0.1-0.2-0.3-0.3-0.4-0.5l8.3-12.5l7.6,4.5c-0.1,0.4-0.2,0.9-0.2,1.3C68.7,43.8,68.7,44.1,68.8,44.3z
		 M62.4,36.1l2.6-4l5,8.4c0,0-0.1,0.1-0.1,0.1L62.4,36.1z M73,46.6c-0.9,0-1.7-0.4-2.3-1c-0.4-0.5-0.7-1.1-0.7-1.8
		c0-0.1,0-0.2,0-0.2c0-0.2,0-0.4,0.1-0.7c0.1-0.5,0.3-0.9,0.7-1.3c0.1-0.1,0.2-0.2,0.3-0.3c0.4-0.3,0.8-0.6,1.3-0.7
		c0.2,0,0.4-0.1,0.7-0.1c1.7,0,3,1.4,3,3C76,45.2,74.7,46.6,73,46.6z"/>
	<g>
		<path class="st0" d="M56.4,87v6.5h-1.5v-6.3c0-2.4-1.2-3.6-3.2-3.6c-2.3,0-3.7,1.5-3.7,4v5.9h-1.5v-6.3c0-2.4-1.2-3.6-3.2-3.6
			c-2.3,0-3.7,1.5-3.7,4v5.9h-1.5V82.3h1.4v2c0.8-1.3,2.2-2.1,4.1-2.1c1.9,0,3.3,0.8,4,2.4c0.8-1.4,2.4-2.4,4.4-2.4
			C54.6,82.2,56.4,83.8,56.4,87z"/>
		<path class="st0" d="M60.5,77.7h1.5v15.8h-1.5V77.7z"/>
	</g>
</g>
</svg>
