<svg width="75" height="74" viewBox="0 0 75 74" fill="none" xmlns="http://www.w3.org/2000/svg">
<path d="M33.955 54.2166L33.6017 54.5703L34.455 55.4226V54.2166H33.955ZM40.1287 54.2164H39.6287V55.4224L40.482 54.5702L40.1287 54.2164ZM53.3799 40.9816L53.7333 41.3354L53.7333 41.3354L53.3799 40.9816ZM57.7454 40.9816L58.0987 40.6278L58.0987 40.6278L57.7454 40.9816ZM57.7454 45.3416L58.0987 45.6954L58.0987 45.6954L57.7454 45.3416ZM39.2407 63.8232L38.8874 63.4694L38.8848 63.472L39.2407 63.8232ZM39.0635 63.9893L38.7361 63.6114L38.7359 63.6116L39.0635 63.9893ZM38.3011 64.4751L38.0975 64.0184L38.0972 64.0186L38.3011 64.4751ZM35.8602 64.5085L36.0516 64.0465L36.0512 64.0464L35.8602 64.5085ZM34.8591 63.8394L35.2124 63.4856L35.2124 63.4856L34.8591 63.8394ZM16.3382 45.3416L15.9849 45.6954L15.9849 45.6954L16.3382 45.3416ZM16.3382 40.9816L16.6915 41.3354L16.3382 40.9816ZM20.7036 40.9816L21.0569 40.6278L21.0569 40.6278L20.7036 40.9816ZM33.455 12.332V54.2166H34.455V12.332H33.455ZM37.0419 8.74902C35.0615 8.74902 33.455 10.3526 33.455 12.332H34.455C34.455 10.906 35.6126 9.74902 37.0419 9.74902V8.74902ZM40.6287 12.332C40.6287 10.3526 39.0222 8.74902 37.0419 8.74902V9.74902C38.4711 9.74902 39.6287 10.906 39.6287 12.332H40.6287ZM40.6287 54.2164V12.332H39.6287V54.2164H40.6287ZM53.0266 40.6278L39.7753 53.8626L40.482 54.5702L53.7333 41.3354L53.0266 40.6278ZM58.0987 40.6278C56.698 39.2289 54.4273 39.2289 53.0266 40.6278L53.7333 41.3354C54.7435 40.3264 56.3818 40.3264 57.392 41.3354L58.0987 40.6278ZM58.0987 45.6954C59.4997 44.2961 59.4997 42.0271 58.0987 40.6278L57.392 41.3354C58.4019 42.3441 58.4019 43.9792 57.392 44.9878L58.0987 45.6954ZM39.5941 64.177L58.0987 45.6954L57.392 44.9878L38.8874 63.4694L39.5941 64.177ZM39.3909 64.3672C39.462 64.3056 39.5306 64.2413 39.5967 64.1743L38.8848 63.472C38.8371 63.5204 38.7875 63.5669 38.7361 63.6114L39.3909 64.3672ZM38.5048 64.9317C38.8202 64.791 39.1194 64.6027 39.3911 64.367L38.7359 63.6116C38.5397 63.7818 38.3243 63.9173 38.0975 64.0184L38.5048 64.9317ZM37.0419 65.2424C37.562 65.2424 38.0576 65.1315 38.5051 64.9316L38.0972 64.0186C37.7755 64.1623 37.4188 64.2424 37.0419 64.2424V65.2424ZM35.6689 64.9704C36.0925 65.1459 36.5565 65.2424 37.0419 65.2424V64.2424C36.6901 64.2424 36.3559 64.1726 36.0516 64.0465L35.6689 64.9704ZM34.5057 64.1932C34.849 64.536 35.2456 64.7955 35.6693 64.9706L36.0512 64.0464C35.7467 63.9206 35.461 63.734 35.2124 63.4856L34.5057 64.1932ZM15.9849 45.6954L34.5057 64.1932L35.2124 63.4856L16.6915 44.9878L15.9849 45.6954ZM15.9849 40.6278C14.5838 42.0271 14.5838 44.2961 15.9849 45.6954L16.6915 44.9878C15.6816 43.9792 15.6816 42.3441 16.6915 41.3354L15.9849 40.6278ZM21.0569 40.6278C19.6562 39.2289 17.3855 39.2289 15.9849 40.6278L16.6915 41.3354C17.7018 40.3264 19.34 40.3264 20.3503 41.3354L21.0569 40.6278ZM34.3084 53.8628L21.0569 40.6278L20.3503 41.3354L33.6017 54.5703L34.3084 53.8628Z" fill="#ACACAC"/>
<mask id="mask0" mask-type="alpha" maskUnits="userSpaceOnUse" x="14" y="8" width="46" height="58">
<path d="M33.955 54.2166L33.6017 54.5703L34.455 55.4226V54.2166H33.955ZM40.1287 54.2164H39.6287V55.4224L40.482 54.5702L40.1287 54.2164ZM53.3799 40.9816L53.7333 41.3354L53.7333 41.3354L53.3799 40.9816ZM57.7454 40.9816L58.0987 40.6278L58.0987 40.6278L57.7454 40.9816ZM57.7454 45.3416L58.0987 45.6954L58.0987 45.6954L57.7454 45.3416ZM39.2407 63.8232L38.8874 63.4694L38.8848 63.472L39.2407 63.8232ZM39.0635 63.9893L38.7361 63.6114L38.7359 63.6116L39.0635 63.9893ZM38.3011 64.4751L38.0975 64.0184L38.0972 64.0186L38.3011 64.4751ZM35.8602 64.5085L36.0516 64.0465L36.0512 64.0464L35.8602 64.5085ZM34.8591 63.8394L35.2124 63.4856L35.2124 63.4856L34.8591 63.8394ZM16.3382 45.3416L15.9849 45.6954L15.9849 45.6954L16.3382 45.3416ZM16.3382 40.9816L16.6915 41.3354L16.3382 40.9816ZM20.7036 40.9816L21.0569 40.6278L21.0569 40.6278L20.7036 40.9816ZM33.455 12.332V54.2166H34.455V12.332H33.455ZM37.0419 8.74902C35.0615 8.74902 33.455 10.3526 33.455 12.332H34.455C34.455 10.906 35.6126 9.74902 37.0419 9.74902V8.74902ZM40.6287 12.332C40.6287 10.3526 39.0222 8.74902 37.0419 8.74902V9.74902C38.4711 9.74902 39.6287 10.906 39.6287 12.332H40.6287ZM40.6287 54.2164V12.332H39.6287V54.2164H40.6287ZM53.0266 40.6278L39.7753 53.8626L40.482 54.5702L53.7333 41.3354L53.0266 40.6278ZM58.0987 40.6278C56.698 39.2289 54.4273 39.2289 53.0266 40.6278L53.7333 41.3354C54.7435 40.3264 56.3818 40.3264 57.392 41.3354L58.0987 40.6278ZM58.0987 45.6954C59.4997 44.2961 59.4997 42.0271 58.0987 40.6278L57.392 41.3354C58.4019 42.3441 58.4019 43.9792 57.392 44.9878L58.0987 45.6954ZM39.5941 64.177L58.0987 45.6954L57.392 44.9878L38.8874 63.4694L39.5941 64.177ZM39.3909 64.3672C39.462 64.3056 39.5306 64.2413 39.5967 64.1743L38.8848 63.472C38.8371 63.5204 38.7875 63.5669 38.7361 63.6114L39.3909 64.3672ZM38.5048 64.9317C38.8202 64.791 39.1194 64.6027 39.3911 64.367L38.7359 63.6116C38.5397 63.7818 38.3243 63.9173 38.0975 64.0184L38.5048 64.9317ZM37.0419 65.2424C37.562 65.2424 38.0576 65.1315 38.5051 64.9316L38.0972 64.0186C37.7755 64.1623 37.4188 64.2424 37.0419 64.2424V65.2424ZM35.6689 64.9704C36.0925 65.1459 36.5565 65.2424 37.0419 65.2424V64.2424C36.6901 64.2424 36.3559 64.1726 36.0516 64.0465L35.6689 64.9704ZM34.5057 64.1932C34.849 64.536 35.2456 64.7955 35.6693 64.9706L36.0512 64.0464C35.7467 63.9206 35.461 63.734 35.2124 63.4856L34.5057 64.1932ZM15.9849 45.6954L34.5057 64.1932L35.2124 63.4856L16.6915 44.9878L15.9849 45.6954ZM15.9849 40.6278C14.5838 42.0271 14.5838 44.2961 15.9849 45.6954L16.6915 44.9878C15.6816 43.9792 15.6816 42.3441 16.6915 41.3354L15.9849 40.6278ZM21.0569 40.6278C19.6562 39.2289 17.3855 39.2289 15.9849 40.6278L16.6915 41.3354C17.7018 40.3264 19.34 40.3264 20.3503 41.3354L21.0569 40.6278ZM34.3084 53.8628L21.0569 40.6278L20.3503 41.3354L33.6017 54.5703L34.3084 53.8628Z" fill="white"/>
</mask>
<g mask="url(#mask0)">
</g>
</svg>
