<svg width="126" height="78" viewBox="0 0 126 78" fill="none" xmlns="http://www.w3.org/2000/svg">
<g clip-path="url(#clip0)">
<path d="M62.289 77.9977C61.8701 77.9979 61.4585 77.8867 61.0956 77.6752L57.2959 75.4037C56.7263 75.0842 57.0111 74.969 57.1934 74.9028C57.7936 74.7135 58.3678 74.4485 58.9024 74.114C58.9476 74.0921 58.9978 74.0827 59.0479 74.0868C59.0979 74.0908 59.1459 74.1081 59.1872 74.137L62.1039 75.8874C62.1581 75.9171 62.2188 75.9327 62.2804 75.9327C62.3421 75.9327 62.4028 75.9171 62.457 75.8874L73.836 69.2485C73.889 69.2162 73.9329 69.1706 73.9633 69.1161C73.9938 69.0616 74.0097 69.0001 74.0097 68.9376V55.6655C74.0099 55.6018 73.9937 55.5391 73.9627 55.4836C73.9318 55.4281 73.8871 55.3817 73.8331 55.3488L62.4599 48.7272C62.4066 48.6961 62.3462 48.6797 62.2847 48.6797C62.2232 48.6797 62.1628 48.6961 62.1095 48.7272L50.7363 55.3488C50.6818 55.3813 50.6365 55.4276 50.6051 55.4831C50.5736 55.5387 50.557 55.6015 50.5569 55.6655V68.9376C50.5568 69.0004 50.5734 69.0622 50.6049 69.1164C50.6365 69.1706 50.6819 69.2152 50.7363 69.2456L53.8524 71.0651C55.5442 71.9288 56.581 70.9125 56.581 69.9135V56.7969C56.581 56.7532 56.5896 56.7099 56.6062 56.6696C56.6229 56.6292 56.6472 56.5926 56.678 56.5618C56.7087 56.531 56.7451 56.5067 56.7852 56.4902C56.8253 56.4738 56.8682 56.4655 56.9114 56.4658H58.3526C58.3959 56.4655 58.4388 56.4738 58.4789 56.4902C58.5189 56.5067 58.5554 56.531 58.5861 56.5618C58.6168 56.5926 58.6412 56.6292 58.6579 56.6696C58.6745 56.7099 58.6831 56.7532 58.6831 56.7969V69.902C58.6831 72.185 57.4554 73.4921 55.3135 73.4921C54.6556 73.4921 54.14 73.4921 52.6931 72.7724L49.7081 71.045C49.3454 70.8306 49.0445 70.5242 48.8351 70.1561C48.6258 69.7879 48.5153 69.3708 48.5146 68.9462V55.6741C48.5147 55.2498 48.6249 54.8328 48.8343 54.465C49.0438 54.0972 49.3451 53.7914 49.7081 53.5782L61.0813 46.9221C61.4482 46.7195 61.8595 46.6133 62.2776 46.6133C62.6957 46.6133 63.107 46.7195 63.4739 46.9221L74.8528 53.5696C75.2156 53.783 75.5168 54.0889 75.7262 54.4566C75.9356 54.8244 76.0459 55.2412 76.0462 55.6655V68.9376C76.0453 69.3621 75.9347 69.7791 75.7254 70.1472C75.5161 70.5153 75.2153 70.8218 74.8528 71.0363L63.4739 77.6752C63.1134 77.885 62.705 77.9961 62.289 77.9977Z" fill="#679E63"/>
<path d="M65.7899 68.8538C60.811 68.8538 59.7686 66.5506 59.7686 64.6073C59.7682 64.5637 59.7764 64.5205 59.7927 64.4802C59.8091 64.4398 59.8332 64.4032 59.8637 64.3724C59.8942 64.3415 59.9304 64.3172 59.9703 64.3007C60.0102 64.2842 60.053 64.2759 60.0961 64.2762H61.5687C61.6486 64.2756 61.7261 64.3044 61.7864 64.3575C61.8468 64.4105 61.8858 64.484 61.8962 64.5641C62.1184 66.0785 62.7792 66.8443 65.7899 66.8443C68.1881 66.8443 69.2078 66.2944 69.2078 65.0104C69.2078 64.2676 68.923 63.7177 65.1946 63.3492C62.0814 63.0383 60.1559 62.3416 60.1559 59.8254C60.1559 57.5049 62.0899 56.1201 65.3341 56.1201C68.98 56.1201 70.7829 57.3984 71.0108 60.1507C71.0148 60.1966 71.0092 60.2428 70.9945 60.2865C70.9798 60.3301 70.9562 60.3701 70.9253 60.404C70.8943 60.4375 70.8568 60.4642 70.8152 60.4826C70.7735 60.5009 70.7286 60.5104 70.6832 60.5105H69.2078C69.1334 60.5104 69.0613 60.4846 69.0033 60.4375C68.9454 60.3905 68.905 60.3248 68.8888 60.2514C68.5328 58.6594 67.6726 58.1498 65.3341 58.1498C62.7166 58.1498 62.4118 59.0711 62.4118 59.762C62.4118 60.5969 62.7707 60.8416 66.3054 61.3138C69.8401 61.7859 71.4637 62.4423 71.4637 64.9269C71.4637 67.4114 69.41 68.8538 65.7899 68.8538Z" fill="#679E63"/>
<path d="M82.1989 54.9336C82.1989 55.372 82.0703 55.8006 81.8293 56.1652C81.5883 56.5297 81.2457 56.8139 80.845 56.9817C80.4442 57.1494 80.0033 57.1933 79.5778 57.1078C79.1524 57.0223 78.7616 56.8111 78.4549 56.5011C78.1482 56.1911 77.9393 55.7961 77.8546 55.3661C77.77 54.9361 77.8134 54.4903 77.9794 54.0853C78.1454 53.6802 78.4266 53.334 78.7872 53.0904C79.1479 52.8468 79.5719 52.7168 80.0057 52.7168C80.5869 52.7183 81.1439 52.9524 81.5549 53.3678C81.9658 53.7832 82.1974 54.3461 82.1989 54.9336V54.9336ZM78.1657 54.9336C78.1646 55.3019 78.2717 55.6623 78.4734 55.969C78.6752 56.2757 78.9625 56.515 79.2989 56.6565C79.6354 56.798 80.0058 56.8353 80.3633 56.7637C80.7207 56.6921 81.0491 56.5149 81.3068 56.2544C81.5644 55.994 81.7398 55.6621 81.8106 55.3008C81.8814 54.9395 81.8445 54.565 81.7045 54.225C81.5646 53.8849 81.3278 53.5945 81.0244 53.3906C80.7209 53.1867 80.3644 53.0784 80 53.0795C79.515 53.0811 79.0501 53.2761 78.7066 53.6222C78.3631 53.9684 78.1687 54.4376 78.1657 54.9278V54.9336ZM79.1825 53.6956H80.037C80.3219 53.6956 80.8915 53.6956 80.8915 54.352C80.9023 54.4938 80.8609 54.6345 80.7751 54.7472C80.6894 54.8599 80.5655 54.9365 80.4272 54.9624C80.7633 54.9854 80.7861 55.21 80.8317 55.5382C80.8445 55.7619 80.8877 55.9827 80.9599 56.1946H80.4386C80.4386 56.0765 80.3446 55.4432 80.3446 55.4086C80.3105 55.2676 80.262 55.1985 80.0883 55.1985H79.6639V56.1946H79.1882L79.1825 53.6956ZM79.6468 54.7868H80.0285C80.0768 54.7932 80.1259 54.7888 80.1723 54.7738C80.2188 54.7588 80.2613 54.7337 80.297 54.7001C80.3326 54.6665 80.3605 54.6254 80.3786 54.5797C80.3967 54.5339 80.4045 54.4847 80.4016 54.4355C80.4016 54.0958 80.168 54.0958 80.0399 54.0958H79.6468V54.7868Z" fill="#679E63"/>
<path fill-rule="evenodd" clip-rule="evenodd" d="M27.0389 26.0691C27.04 25.8096 26.9731 25.5543 26.845 25.3293C26.7169 25.1043 26.5323 24.9175 26.3097 24.788L14.2472 17.7719C14.0447 17.6538 13.8171 17.5866 13.5835 17.5762H13.4582C13.2238 17.5869 12.9953 17.654 12.7917 17.7719L0.729165 24.788C0.507193 24.9182 0.322985 25.1051 0.195008 25.33C0.0670309 25.5548 -0.000219996 25.8097 5.40661e-07 26.0691L0.0256363 44.9638C0.0245159 45.0932 0.0577534 45.2204 0.121882 45.3323C0.18601 45.4442 0.278679 45.5367 0.390218 45.6001C0.499399 45.6666 0.624466 45.7018 0.75195 45.7018C0.879434 45.7018 1.0045 45.6666 1.11368 45.6001L8.28284 41.4515C8.50382 41.3209 8.68729 41.1343 8.81516 40.9101C8.94303 40.6859 9.01087 40.432 9.012 40.1732V31.3434C9.01184 31.0855 9.07888 30.8321 9.20639 30.6087C9.33389 30.3854 9.51735 30.1999 9.73832 30.0709L12.7917 28.2917C13.0143 28.1622 13.2669 28.0946 13.5237 28.0959C13.7778 28.0948 14.0276 28.1624 14.2472 28.2917L17.3005 30.0709C17.5215 30.1999 17.705 30.3854 17.8325 30.6087C17.96 30.8321 18.027 31.0855 18.0269 31.3434V40.1732C18.0283 40.4322 18.0966 40.6864 18.2249 40.9106C18.3533 41.1348 18.5374 41.3212 18.7589 41.4515L25.9252 45.6001C26.0354 45.6665 26.1614 45.7016 26.2898 45.7016C26.4181 45.7016 26.5441 45.6665 26.6543 45.6001C26.7644 45.5352 26.8557 45.4423 26.9191 45.3307C26.9826 45.2191 27.016 45.0926 27.0161 44.9638L27.0389 26.0691Z" fill="#333333"/>
<path fill-rule="evenodd" clip-rule="evenodd" d="M85.0759 0.0922309C84.9651 0.0302215 84.8403 -0.00154446 84.7136 5.77419e-05C84.587 0.00165995 84.4629 0.0365751 84.3537 0.101368C84.2445 0.166161 84.1538 0.258599 84.0907 0.369572C84.0275 0.480545 83.9941 0.606228 83.9936 0.734245V19.4476C83.9931 19.5385 83.9692 19.6277 83.9242 19.7064C83.8793 19.7852 83.8148 19.8507 83.7372 19.8967C83.6597 19.9419 83.5718 19.9657 83.4823 19.9657C83.3928 19.9657 83.3049 19.9419 83.2274 19.8967L80.2168 18.1319C79.9956 18.0025 79.7446 17.9343 79.489 17.9343C79.2335 17.9343 78.9824 18.0025 78.7613 18.1319L66.693 25.171C66.4709 25.2996 66.2865 25.4853 66.1584 25.7093C66.0303 25.9333 65.9632 26.1876 65.9639 26.4464V40.5303C65.9641 40.7888 66.0316 41.0428 66.1595 41.2666C66.2875 41.4905 66.4715 41.6764 66.693 41.8057L78.7613 48.8505C78.9826 48.9794 79.2336 49.0472 79.489 49.0472C79.7444 49.0472 79.9954 48.9794 80.2168 48.8505L92.2878 41.8057C92.509 41.676 92.6926 41.49 92.8206 41.2662C92.9485 41.0424 93.0162 40.7887 93.017 40.5303V5.42985C93.0171 5.16729 92.9477 4.90949 92.816 4.6832C92.6842 4.45691 92.495 4.27037 92.2679 4.14295L85.0759 0.0922309ZM83.9566 35.9067C83.9569 35.9715 83.9402 36.0352 83.9082 36.0914C83.8762 36.1475 83.83 36.1941 83.7743 36.2262L79.63 38.6417C79.5742 38.6729 79.5115 38.6893 79.4477 38.6893C79.3839 38.6893 79.3212 38.6729 79.2654 38.6417L75.124 36.2262C75.0683 36.1941 75.0221 36.1475 74.9901 36.0914C74.958 36.0352 74.9413 35.9715 74.9417 35.9067V31.07C74.9418 31.006 74.9585 30.9431 74.9899 30.8876C75.0214 30.8321 75.0666 30.7858 75.1211 30.7533L79.2654 28.3321C79.3207 28.2994 79.3837 28.2823 79.4477 28.2823C79.5118 28.2823 79.5747 28.2994 79.63 28.3321L83.7743 30.7533C83.8295 30.7852 83.8755 30.8313 83.9075 30.8869C83.9395 30.9425 83.9564 31.0057 83.9566 31.07V35.9067Z" fill="#333333"/>
<path fill-rule="evenodd" clip-rule="evenodd" d="M125.273 30.9431C125.494 30.8142 125.678 30.6287 125.805 30.4053C125.933 30.1819 126 29.9285 126 29.6706V26.259C126 26.0007 125.933 25.747 125.805 25.5232C125.678 25.2993 125.494 25.1133 125.273 24.9836L113.273 17.9474C113.051 17.8181 112.799 17.75 112.543 17.75C112.286 17.75 112.034 17.8181 111.812 17.9474L99.7497 24.9894C99.5276 25.118 99.3431 25.3037 99.215 25.5277C99.087 25.7518 99.0198 26.0061 99.0205 26.2648V40.343C99.0208 40.6026 99.0889 40.8575 99.2179 41.0819C99.347 41.3064 99.5324 41.4924 99.7554 41.6212L111.747 48.5308C111.964 48.6535 112.21 48.718 112.459 48.718C112.708 48.718 112.953 48.6535 113.171 48.5308L120.423 44.457C120.535 44.3928 120.629 44.2996 120.694 44.1868C120.759 44.0739 120.794 43.9456 120.794 43.815C120.794 43.6843 120.759 43.556 120.694 43.4432C120.629 43.3304 120.535 43.2372 120.423 43.173L108.283 36.131C108.172 36.0664 108.079 35.9733 108.015 35.8612C107.95 35.749 107.916 35.6216 107.916 35.4919V31.0871C107.916 30.958 107.95 30.8312 108.014 30.7195C108.078 30.6078 108.17 30.5151 108.28 30.4508L112.06 28.2484C112.17 28.1834 112.296 28.1491 112.423 28.1491C112.551 28.1491 112.676 28.1834 112.786 28.2484L116.569 30.4508C116.68 30.5151 116.772 30.6078 116.836 30.7195C116.9 30.8312 116.933 30.958 116.933 31.0871V34.5418C116.933 34.6714 116.966 34.7987 117.03 34.911C117.094 35.0233 117.186 35.1165 117.297 35.1811C117.409 35.2457 117.535 35.2795 117.663 35.2789C117.791 35.2784 117.917 35.2436 118.027 35.1781L125.273 30.9431Z" fill="#333333"/>
<path fill-rule="evenodd" clip-rule="evenodd" d="M112.374 30.2837C112.417 30.2584 112.466 30.2451 112.516 30.2451C112.566 30.2451 112.615 30.2584 112.658 30.2837L114.983 31.6339C115.026 31.659 115.061 31.6951 115.086 31.7386C115.111 31.782 115.125 31.8313 115.125 31.8815V34.582C115.124 34.6318 115.111 34.6804 115.086 34.7233C115.061 34.7662 115.025 34.8018 114.983 34.8267L112.667 36.1798C112.624 36.2051 112.574 36.2184 112.524 36.2184C112.474 36.2184 112.425 36.2051 112.382 36.1798L110.069 34.8267C110.027 34.8015 109.992 34.7657 109.968 34.7228C109.943 34.68 109.93 34.6315 109.93 34.582V31.8815C109.93 31.8316 109.943 31.7825 109.967 31.7391C109.992 31.6956 110.027 31.6594 110.069 31.6339L112.374 30.2837Z" fill="#679E63"/>
<path fill-rule="evenodd" clip-rule="evenodd" d="M47.2277 18.0196C47.0073 17.891 46.7573 17.8232 46.5028 17.8232C46.2483 17.8232 45.9983 17.891 45.7779 18.0196L33.7781 25.0183C33.5573 25.1468 33.374 25.3318 33.2465 25.5547C33.119 25.7776 33.0518 26.0305 33.0518 26.288V40.2999C33.052 40.557 33.1193 40.8094 33.2468 41.0318C33.3743 41.2542 33.5576 41.4387 33.7781 41.5667L45.7694 48.5741C45.9898 48.7027 46.2398 48.7704 46.4943 48.7704C46.7488 48.7704 46.9988 48.7027 47.2192 48.5741L59.219 41.5667C59.4388 41.4381 59.6213 41.2534 59.7483 41.0311C59.8753 40.8088 59.9422 40.5566 59.9425 40.2999V26.288C59.9425 26.0305 59.8753 25.7776 59.7478 25.5547C59.6203 25.3318 59.4369 25.1468 59.2162 25.0183L47.2277 18.0196Z" fill="url(#paint0_linear)"/>
<path d="M59.2504 25.0176L47.2163 18.0188C47.0978 17.9501 46.9703 17.8987 46.8375 17.8662L33.3252 41.2291C33.4418 41.362 33.5783 41.4757 33.7297 41.5659L45.7865 48.5733C45.9546 48.6703 46.1401 48.7327 46.3322 48.757C46.5243 48.7812 46.7193 48.7667 46.9059 48.7144L59.5722 25.268C59.4752 25.1719 59.3671 25.0878 59.2504 25.0176V25.0176Z" fill="url(#paint1_linear)"/>
<path d="M45.3791 15.4453L45.2139 15.5403H45.4332L45.3791 15.4453Z" fill="url(#paint2_linear)"/>
<path d="M59.2557 41.5661C59.4289 41.4656 59.5807 41.3314 59.7024 41.1713C59.8241 41.0112 59.9133 40.8284 59.9649 40.6333L46.7716 17.8434C46.4232 17.7716 46.061 17.8299 45.7519 18.0075L33.7891 24.966L46.7004 48.7434C46.8868 48.7176 47.0666 48.656 47.2302 48.562L59.2557 41.5661Z" fill="url(#paint3_linear)"/>
<path d="M60.3761 41.3414L60.2959 41.2061V41.3874L60.3761 41.3414Z" fill="url(#paint4_linear)"/>
<path d="M59.2558 41.5665L47.2417 48.5739C47.0781 48.6679 46.8983 48.7294 46.7119 48.7553L46.9512 49.1957L60.2954 41.388V41.2037L59.965 40.6279C59.9141 40.824 59.8252 41.008 59.7035 41.1691C59.5818 41.3302 59.4296 41.4653 59.2558 41.5665V41.5665Z" fill="url(#paint5_linear)"/>
<path d="M59.2558 41.5665L47.2417 48.5739C47.0781 48.6679 46.8983 48.7294 46.7119 48.7553L46.9512 49.1957L60.2954 41.388V41.2037L59.965 40.6279C59.9141 40.824 59.8252 41.008 59.7035 41.1691C59.5818 41.3302 59.4296 41.4653 59.2558 41.5665V41.5665Z" fill="url(#paint6_linear)"/>
</g>
<defs>
<linearGradient id="paint0_linear" x1="51.3805" y1="23.2305" x2="40.3514" y2="45.4952" gradientUnits="userSpaceOnUse">
<stop stop-color="#3F873F"/>
<stop offset="0.33" stop-color="#3F8B3D"/>
<stop offset="0.64" stop-color="#3E9637"/>
<stop offset="0.93" stop-color="#3DA92E"/>
<stop offset="1" stop-color="#3DAE2B"/>
</linearGradient>
<linearGradient id="paint1_linear" x1="44.6756" y1="34.9299" x2="75.3249" y2="12.5258" gradientUnits="userSpaceOnUse">
<stop offset="0.14" stop-color="#3F873F"/>
<stop offset="0.4" stop-color="#529F44"/>
<stop offset="0.71" stop-color="#63B649"/>
<stop offset="0.91" stop-color="#6ABF4B"/>
</linearGradient>
<linearGradient id="paint2_linear" x1="32.6306" y1="15.4943" x2="60.3748" y2="15.4943" gradientUnits="userSpaceOnUse">
<stop offset="0.09" stop-color="#6ABF4B"/>
<stop offset="0.29" stop-color="#63B649"/>
<stop offset="0.6" stop-color="#529F44"/>
<stop offset="0.86" stop-color="#3F873F"/>
</linearGradient>
<linearGradient id="paint3_linear" x1="5082.06" y1="8667.37" x2="7632.11" y2="8667.37" gradientUnits="userSpaceOnUse">
<stop offset="0.09" stop-color="#6ABF4B"/>
<stop offset="0.29" stop-color="#63B649"/>
<stop offset="0.6" stop-color="#529F44"/>
<stop offset="0.86" stop-color="#3F873F"/>
</linearGradient>
<linearGradient id="paint4_linear" x1="69.4863" y1="67.223" x2="77.3008" y2="67.223" gradientUnits="userSpaceOnUse">
<stop offset="0.09" stop-color="#6ABF4B"/>
<stop offset="0.29" stop-color="#63B649"/>
<stop offset="0.6" stop-color="#529F44"/>
<stop offset="0.86" stop-color="#3F873F"/>
</linearGradient>
<linearGradient id="paint5_linear" x1="2666.43" y1="2782.59" x2="3989.73" y2="2782.59" gradientUnits="userSpaceOnUse">
<stop offset="0.09" stop-color="#6ABF4B"/>
<stop offset="0.29" stop-color="#63B649"/>
<stop offset="0.6" stop-color="#529F44"/>
<stop offset="0.86" stop-color="#3F873F"/>
</linearGradient>
<linearGradient id="paint6_linear" x1="4182.48" y1="2117.55" x2="3814.92" y2="3306.39" gradientUnits="userSpaceOnUse">
<stop stop-color="#3F873F"/>
<stop offset="0.33" stop-color="#3F8B3D"/>
<stop offset="0.64" stop-color="#3E9637"/>
<stop offset="0.93" stop-color="#3DA92E"/>
<stop offset="1" stop-color="#3DAE2B"/>
</linearGradient>
<clipPath id="clip0">
<rect width="126" height="78" fill="white"/>
</clipPath>
</defs>
</svg>
