<svg width="251" height="283" viewBox="0 0 251 283" fill="none" xmlns="http://www.w3.org/2000/svg">
<g clip-path="url(#clip0)">
<path d="M140.001 0.387385C125.539 -0.723215 110.993 0.561219 96.9505 4.18873C74.7667 9.90293 55.3791 19.7352 40.2662 35.6497C15.2179 62.0276 8.28852 92.1581 20.7639 124.901C32.9854 156.969 58.795 177.639 93.4419 189.699C98.5877 191.488 103.934 192.784 109.136 194.29C107.642 210.826 106.169 227.186 104.653 243.98C112.444 243.98 119.781 244.022 127.132 243.902C127.716 243.902 128.718 242.813 128.782 242.172C129.553 234.275 130.168 226.365 130.856 218.458C131.473 211.391 132.127 204.324 132.788 196.985H188.292C186.859 190.345 185.33 184.092 184.246 177.781C183.834 175.378 182.77 174.901 180.362 174.915C166.606 174.998 152.849 174.959 139.093 174.959H134.743C136.712 153.499 138.646 132.455 140.64 110.646C146.913 112.717 152.639 114.301 158.073 116.46C182.977 126.385 201.36 142.151 210.532 165.663C217.524 183.6 216.431 201.408 206.628 218.241C192.11 243.196 167.813 255.735 137.761 259.807C118.888 262.363 100.366 260.163 82.6184 253.678C61.252 245.881 44.1457 233.439 33.0269 214.985C29.716 209.488 27.3712 203.515 24.5287 197.643H0.209931C0.107454 198.001 -0.0340655 198.211 0.00741324 198.374C5.56312 222.305 19.2999 241.799 40.3223 256.885C70.1089 278.273 104.219 286.355 141.896 281.755C167.855 278.587 190.629 269.045 209.238 252.27C232.618 231.187 242.734 205.713 238.576 175.973C235.502 153.971 224.271 135.488 207.174 119.927C189.97 104.261 169.153 94.1587 145.339 89.1731C143.063 88.6857 142.453 87.867 142.765 85.8737C143.214 83.0007 143.368 80.0888 143.648 77.1915C144.453 68.8944 145.303 60.5972 146.047 52.2927C146.42 48.1332 146.603 43.959 146.876 39.6996H123.238C121.823 55.0706 120.42 70.3077 118.983 85.8956H65.7927C67.3982 93.5032 68.9207 100.723 70.4773 108.112H116.938C115.03 129.372 113.149 150.333 111.251 171.492C91.4875 166.443 74.5032 157.67 61.1007 143.713C45.8634 127.842 37.8116 109.727 40.2711 88.3762C42.6915 67.3275 54.125 51.0013 72.9026 38.9247C97.763 22.9469 125.561 18.9141 155.018 24.889C185.425 31.054 208.926 45.9426 223.483 71.3482C223.878 72.0378 224.825 72.9418 225.527 72.9516C233.855 73.0637 242.185 73.0247 251.003 73.0247C249.783 70.2346 248.929 67.8392 247.723 65.5999C245.586 61.6304 243.539 57.5805 240.928 53.8644C217.463 20.4687 182.987 3.67213 140.001 0.387385Z" fill="url(#paint0_linear)"/>
</g>
<defs>
<linearGradient id="paint0_linear" x1="217.495" y1="20.4171" x2="-33.3879" y2="336.062" gradientUnits="userSpaceOnUse">
<stop stop-color="#23C8D3"/>
<stop offset="1" stop-color="#886ED2"/>
</linearGradient>
<clipPath id="clip0">
<rect width="251" height="283" fill="white"/>
</clipPath>
</defs>
</svg>
