<svg xmlns="http://www.w3.org/2000/svg" viewBox="0 0 202.25 403.38"><defs><style>.cls-1{fill:#fff;}</style></defs><title>mobile</title><g id="OBJECTS"><path d="M350,139.72V76.91a28.77,28.77,0,0,0-28.77-28.77H181.43a29.89,29.89,0,0,0-29.8,29.8v23h0a1.68,1.68,0,0,0-1.68,1.68v11.8a1.68,1.68,0,0,0,1.68,1.68h0v14h0a1.68,1.68,0,0,0-1.68,1.69v25.28a1.68,1.68,0,0,0,1.68,1.68h0v8.43h0a1.68,1.68,0,0,0-1.68,1.69v25.28a1.68,1.68,0,0,0,1.68,1.68h0V421.64a30,30,0,0,0,29.89,29.89H321.19A28.85,28.85,0,0,0,350,422.76V186.35h.56a1.68,1.68,0,0,0,1.68-1.68V141.41a1.69,1.69,0,0,0-1.68-1.69ZM274.83,61a2.46,2.46,0,1,1-2.46-2.46A2.46,2.46,0,0,1,274.83,61ZM241.4,60.5h21.91a1.43,1.43,0,1,1,0,2.81H241.4a1.43,1.43,0,1,1,0-2.81Zm97.88,359.85c0,9.81-7.24,18.26-17,18.26H182.33A18.69,18.69,0,0,1,164,420.35V75.8c0-9.81,8.53-17,18.34-17h16.18c3.42,0,4.68-.39,4.89,3.94a8.35,8.35,0,0,0,2.25,5.45,12.24,12.24,0,0,0,5.24,3.25,15.7,15.7,0,0,0,4.5.84h73.93a15.51,15.51,0,0,0,4.5-.94,12.15,12.15,0,0,0,5.24-3.14,8,8,0,0,0,2.25-5.35c.21-4.33,1.47-4,4.89-4h16c9.81,0,17,7.17,17,17Z" transform="translate(-149.95 -48.14)"/><path class="cls-1" d="M263.31,60.5H241.4a1.43,1.43,0,1,0,0,2.81h21.91a1.43,1.43,0,1,0,0-2.81Z" transform="translate(-149.95 -48.14)"/><path class="cls-1" d="M272.37,58.53A2.46,2.46,0,1,0,274.83,61,2.46,2.46,0,0,0,272.37,58.53Z" transform="translate(-149.95 -48.14)"/></g></svg>