<svg width="166" height="166" viewBox="0 0 166 166" fill="none" xmlns="http://www.w3.org/2000/svg">
<path d="M47.9903 19.0081C46.6875 19.3168 45.6478 19.3817 44.8713 19.203C44.0968 19.0171 43.5152 18.5794 43.1263 17.8899C42.6863 17.1095 42.6339 16.2904 42.9693 15.4325C43.3067 14.5674 43.9747 13.854 44.9733 13.2923C45.6542 12.9092 46.3345 12.6999 47.0139 12.6643C47.698 12.6261 48.3157 12.7567 48.8672 13.056C49.4232 13.3527 49.856 13.7756 50.1656 14.3245L48.8514 15.0638C48.5137 14.4649 48.0583 14.1026 47.4851 13.9769C46.9093 13.8466 46.2742 13.9768 45.5797 14.3675C44.9351 14.7301 44.5118 15.1564 44.3098 15.6465C44.1098 16.1295 44.1518 16.6228 44.4358 17.1264C44.6635 17.5301 45.0268 17.7769 45.5259 17.8667C46.027 17.9493 46.7535 17.8753 47.7057 17.6444C48.6623 17.4111 49.4514 17.3048 50.0731 17.3256C50.6967 17.3394 51.2246 17.4697 51.6568 17.7165C52.0936 17.9609 52.454 18.3348 52.7379 18.8384C53.1908 19.6414 53.2408 20.4618 52.8881 21.2996C52.5329 22.1329 51.8309 22.8445 50.7823 23.4343C50.1014 23.8173 49.393 24.0455 48.657 24.1189C47.9185 24.1877 47.2602 24.086 46.6821 23.8136C46.1085 23.5387 45.6592 23.1131 45.3343 22.537L46.6485 21.7977C46.9862 22.3966 47.4737 22.7468 48.111 22.8484C48.7503 22.943 49.4399 22.7822 50.1798 22.3659C50.8698 21.9778 51.3194 21.5397 51.5284 21.0516C51.7375 20.5635 51.7052 20.0767 51.4314 19.5913C51.1577 19.1058 50.7764 18.8273 50.2876 18.7557C49.7962 18.6795 49.0304 18.7637 47.9903 19.0081Z" fill="#B4B4B4"/>
<path d="M65.4875 13.4602C65.7363 14.6455 65.6093 15.6682 65.1064 16.5282C64.6068 17.3816 63.7692 18.0047 62.5935 18.3976C61.3191 18.8235 60.1435 18.7084 59.0668 18.0523C57.9951 17.3945 57.2027 16.3002 56.6899 14.7692L56.3424 13.7321C56.0066 12.7296 55.8891 11.7886 55.9899 10.9092C56.0958 10.0282 56.4093 9.27539 56.9307 8.65088C57.4503 8.02142 58.1424 7.56225 59.0069 7.27336C60.1529 6.89038 61.1792 6.90434 62.0859 7.31524C62.9909 7.72121 63.6896 8.47067 64.1821 9.56364L62.7521 10.0415C62.3407 9.2235 61.863 8.69121 61.319 8.44466C60.78 8.19647 60.14 8.19618 59.399 8.4438C58.4901 8.74755 57.8888 9.32191 57.5951 10.1669C57.3064 11.0102 57.3696 12.0517 57.7849 13.2912L58.1348 14.3358C58.5269 15.5062 59.0833 16.3554 59.804 16.8834C60.5247 17.4113 61.3246 17.5284 62.2039 17.2346C62.9943 16.9704 63.5398 16.5904 63.8406 16.0945C64.1447 15.5921 64.2169 14.8732 64.0574 13.9381L65.4875 13.4602Z" fill="#B4B4B4"/>
<path d="M75.4891 10.8953L72.8379 11.2265L73.4097 15.7924L71.9135 15.9793L70.4999 4.69249L74.2365 4.22567C75.5079 4.06683 76.5209 4.23421 77.2756 4.72779C78.0355 5.22073 78.4846 6.02017 78.6232 7.12611C78.7112 7.82895 78.5967 8.46524 78.2796 9.03499C77.9677 9.60409 77.4894 10.0601 76.8447 10.4031L80.096 14.8626L80.1077 14.9556L78.5107 15.1551L75.4891 10.8953ZM72.6854 10.0094L74.9724 9.72373C75.7114 9.6314 76.274 9.3669 76.6603 8.93024C77.0517 8.49293 77.2072 7.95386 77.127 7.31303C77.0396 6.61536 76.7633 6.10662 76.2981 5.78683C75.838 5.46639 75.2149 5.35266 74.4287 5.44563L72.1495 5.73037L72.6854 10.0094Z" fill="#B4B4B4"/>
<path d="M94.1626 10.4744C94.0708 11.5852 93.8036 12.5404 93.3613 13.3401C92.9193 14.1346 92.3377 14.7216 91.6165 15.1011C90.8953 15.4806 90.0779 15.6327 89.1643 15.5574C88.2715 15.4838 87.498 15.2005 86.8436 14.7075C86.1897 14.2094 85.7042 13.5396 85.387 12.6982C85.0755 11.852 84.9587 10.8939 85.0367 9.82376L85.1043 9.00624C85.1944 7.91621 85.4635 6.96897 85.9115 6.16452C86.3595 5.36008 86.9469 4.76572 87.6738 4.38145C88.4062 3.99241 89.2188 3.83471 90.1117 3.90833C91.02 3.98324 91.8012 4.26976 92.4551 4.7679C93.1146 5.26127 93.5966 5.94121 93.9013 6.80772C94.2064 7.66904 94.3132 8.6525 94.2218 9.7581L94.1626 10.4744ZM92.7359 9.61989C92.8471 8.27552 92.6623 7.22292 92.1817 6.4621C91.7015 5.69609 90.9761 5.27306 90.0054 5.19301C89.0607 5.11511 88.286 5.41443 87.6814 6.09098C87.0823 6.76277 86.7222 7.73647 86.6011 9.01208L86.5322 9.84518C86.4245 11.148 86.6123 12.1956 87.0955 12.988C87.5844 13.7757 88.3089 14.2091 89.2692 14.2883C90.2347 14.3679 91.0111 14.0792 91.5985 13.4221C92.1863 12.7598 92.5423 11.7727 92.6664 10.4608L92.7359 9.61989Z" fill="#B4B4B4"/>
<path d="M101.905 16.5017L107.078 18.0147L106.733 19.1917L100.112 17.2555L103.312 6.3399L104.76 6.76311L101.905 16.5017Z" fill="#B4B4B4"/>
<path d="M113.468 20.9331L118.287 23.3495L117.736 24.4453L111.57 21.3531L116.679 11.19L118.026 11.8659L113.468 20.9331Z" fill="#B4B4B4"/>
<path d="M128.776 32.6948L136.859 24.6916L139.121 26.9706C139.819 27.6729 140.28 28.4479 140.504 29.2954C140.729 30.1429 140.7 30.9967 140.416 31.8567C140.136 32.7204 139.625 33.5224 138.885 34.2626L138.369 34.7738C137.606 35.5287 136.792 36.0423 135.924 36.3145C135.061 36.5905 134.204 36.607 133.354 36.364C132.507 36.1248 131.721 35.6466 130.994 34.9294L128.776 32.6948ZM137.039 26.6247L130.704 32.8964L131.816 34.0165C132.631 34.8371 133.519 35.2219 134.481 35.1709C135.447 35.1236 136.402 34.6327 137.345 33.6983L137.817 33.2311C138.735 32.3223 139.233 31.4007 139.311 30.4661C139.396 29.5316 139.05 28.6652 138.272 27.8668L137.039 26.6247Z" fill="#B4B4B4"/>
<path d="M147.81 48.4174C146.865 49.0092 145.94 49.3675 145.034 49.4924C144.133 49.6145 143.314 49.5006 142.578 49.1507C141.842 48.8008 141.23 48.2377 140.742 47.4614C140.266 46.7028 140.028 45.9141 140.031 45.0952C140.037 44.2735 140.283 43.4838 140.766 42.7261C141.257 41.97 141.954 41.3027 142.858 40.7242L143.553 40.2887C144.48 39.708 145.4 39.3561 146.312 39.2328C147.225 39.1096 148.053 39.2238 148.797 39.5753C149.548 39.9285 150.161 40.4844 150.638 41.243C151.123 42.0149 151.362 42.8116 151.355 43.6333C151.355 44.4566 151.1 45.2496 150.589 46.0123C150.082 46.7723 149.359 47.4468 148.419 48.0358L147.81 48.4174ZM147.638 46.7639C148.781 46.0477 149.513 45.2695 149.834 44.4292C150.16 43.5861 150.064 42.7522 149.546 41.9274C149.041 41.1247 148.337 40.684 147.433 40.6052C146.536 40.5281 145.54 40.8231 144.446 41.4901L143.737 41.9339C142.63 42.628 141.903 43.4057 141.559 44.267C141.221 45.1299 141.309 45.9694 141.821 46.7853C142.336 47.6057 143.033 48.0542 143.912 48.1307C144.794 48.2045 145.798 47.8982 146.923 47.2119L147.638 46.7639Z" fill="#B4B4B4"/>
<path d="M150.199 58.28L148.844 58.9579L150.228 58.8383L158.472 58.4862L158.87 59.6877L152.022 64.2601L150.814 64.9878L152.345 64.7377L160.288 63.9747L160.762 65.4062L149.094 66.3538L148.664 65.0558L155.799 60.2323L156.566 59.7899L155.686 59.8911L147.052 60.1829L146.622 58.885L156.56 52.7084L157.031 54.1325L150.199 58.28Z" fill="#B4B4B4"/>
<path d="M151.195 82.6435L151.074 81.1405L159.355 74.7341L150.617 75.4322L150.497 73.9292L161.836 73.0233L161.956 74.5263L153.638 80.9514L162.415 80.2501L162.534 81.7375L151.195 82.6435Z" fill="#B4B4B4"/>
<path d="M152.872 104.485L154.021 99.8518L149.145 98.6447L149.506 97.1889L160.548 99.9221L158.851 106.762L157.653 106.465L158.988 101.081L155.212 100.147L154.062 104.779L152.872 104.485Z" fill="#B4B4B4"/>
<path d="M146.912 119.158C145.907 118.676 145.11 118.086 144.521 117.388C143.937 116.692 143.596 115.939 143.5 115.131C143.403 114.322 143.553 113.504 143.95 112.678C144.338 111.871 144.88 111.249 145.574 110.814C146.273 110.381 147.073 110.167 147.972 110.171C148.874 110.181 149.811 110.414 150.783 110.868L151.523 111.223C152.509 111.696 153.298 112.285 153.89 112.99C154.481 113.695 154.827 114.456 154.926 115.271C155.027 116.094 154.884 116.909 154.496 117.716C154.101 118.538 153.554 119.165 152.855 119.598C152.158 120.038 151.35 120.246 150.432 120.221C149.518 120.199 148.561 119.948 147.56 119.469L146.912 119.158ZM148.221 118.13C149.437 118.714 150.487 118.916 151.37 118.739C152.257 118.564 152.912 118.037 153.334 117.159C153.744 116.305 153.742 115.475 153.326 114.669C152.912 113.87 152.131 113.186 150.983 112.619L150.229 112.257C149.05 111.692 148.004 111.494 147.091 111.663C146.18 111.838 145.516 112.36 145.099 113.229C144.679 114.102 144.671 114.93 145.075 115.713C145.484 116.498 146.279 117.182 147.46 117.766L148.221 118.13Z" fill="#B4B4B4"/>
<path d="M139.575 128.377L141.205 126.26L137.557 123.456L138.477 122.262L147.496 129.193L145.198 132.176C144.416 133.191 143.584 133.793 142.702 133.982C141.816 134.176 140.932 133.933 140.048 133.253C139.487 132.822 139.115 132.293 138.933 131.667C138.748 131.045 138.76 130.385 138.97 129.686L133.512 128.86L133.437 128.803L134.419 127.528L139.575 128.377ZM142.178 127.008L140.771 128.833C140.317 129.423 140.109 130.009 140.147 130.59C140.183 131.176 140.456 131.665 140.968 132.059C141.526 132.487 142.082 132.649 142.637 132.543C143.189 132.442 143.708 132.079 144.195 131.455L145.597 129.636L142.178 127.008Z" fill="#B4B4B4"/>
<path d="M127.962 148.283L119.809 142.488L121.703 152.301L120.066 153.352L113.91 143.787L115.172 142.977L117.569 146.702L120.039 150.798L118.196 141.035L119.162 140.415L127.271 146.127L124.571 142.206L122.173 138.481L123.436 137.671L129.592 147.236L127.962 148.283Z" fill="#B4B4B4"/>
<path d="M102.227 153.776C101.862 152.723 101.72 151.742 101.801 150.832C101.884 149.927 102.179 149.155 102.685 148.517C103.192 147.879 103.878 147.41 104.744 147.11C105.591 146.817 106.413 146.764 107.211 146.951C108.011 147.142 108.726 147.559 109.356 148.201C109.984 148.849 110.478 149.678 110.84 150.688L111.108 151.463C111.467 152.497 111.604 153.472 111.519 154.388C111.435 155.305 111.138 156.085 110.628 156.73C110.116 157.382 109.436 157.854 108.589 158.147C107.728 158.445 106.898 158.498 106.098 158.306C105.295 158.121 104.579 157.694 103.95 157.024C103.322 156.36 102.827 155.503 102.463 154.455L102.227 153.776ZM103.878 153.982C104.32 155.256 104.915 156.145 105.663 156.646C106.412 157.153 107.247 157.247 108.167 156.929C109.063 156.619 109.65 156.033 109.93 155.17C110.206 154.314 110.142 153.278 109.737 152.062L109.463 151.272C109.034 150.037 108.439 149.155 107.676 148.625C106.91 148.102 106.072 147.998 105.162 148.313C104.246 148.63 103.652 149.207 103.381 150.045C103.111 150.888 103.185 151.935 103.602 153.185L103.878 153.982Z" fill="#B4B4B4"/>
<path d="M90.4888 155.053L93.1403 154.723L92.5716 150.157L94.0679 149.971L95.4737 161.259L91.7368 161.723C90.4653 161.881 89.4524 161.713 88.698 161.219C87.9385 160.725 87.4899 159.926 87.3521 158.82C87.2646 158.117 87.3796 157.481 87.697 156.911C88.0093 156.342 88.4879 155.886 89.1328 155.544L85.8847 151.082L85.8731 150.989L87.4702 150.791L90.4888 155.053ZM93.2919 155.94L91.0047 156.225C90.2656 156.316 89.7028 156.58 89.3163 157.017C88.9246 157.454 88.7686 157.993 88.8484 158.634C88.9353 159.331 89.2113 159.84 89.6763 160.161C90.1361 160.481 90.7592 160.595 91.5454 160.503L93.8248 160.22L93.2919 155.94Z" fill="#B4B4B4"/>
<path d="M74.2436 155.718L79.1645 156.012L79.4062 151.988L73.6899 151.646L73.7634 150.421L80.9771 150.854L80.2949 162.208L73.1593 161.781L73.2333 160.549L78.8716 160.886L79.0909 157.237L74.17 156.942L74.2436 155.718Z" fill="#B4B4B4"/>
<path d="M58.8102 146.393L60.2211 146.902L56.3506 157.599L54.9397 157.089L58.8102 146.393Z" fill="#B4B4B4"/>
<path d="M44.6286 139.205L45.9361 139.956L46.5283 150.404L50.902 142.808L52.2095 143.559L46.5339 153.417L45.2264 152.666L44.6401 142.176L40.247 149.806L38.953 149.063L44.6286 139.205Z" fill="#B4B4B4"/>
<path d="M31.8086 135.017L35.394 138.168L38.715 134.399L39.8417 135.389L32.3217 143.924L27.0287 139.272L27.8447 138.346L32.0111 142.008L34.5832 139.089L30.9977 135.937L31.8086 135.017Z" fill="#B4B4B4"/>
<path d="M21.48 123.015C22.3696 122.344 23.2601 121.906 24.1515 121.703C25.0387 121.503 25.8644 121.546 26.6284 121.83C27.3924 122.115 28.051 122.623 28.6041 123.354C29.1447 124.068 29.4494 124.833 29.5182 125.649C29.5828 126.469 29.4071 127.276 28.9912 128.073C28.568 128.869 27.9313 129.594 27.0813 130.249L26.4265 130.743C25.5535 131.402 24.6677 131.833 23.769 132.035C22.8703 132.237 22.0353 132.195 21.2639 131.909C20.4853 131.622 19.8257 131.122 19.2851 130.408C18.7352 129.681 18.4279 128.908 18.3632 128.089C18.2913 127.269 18.4768 126.456 18.9198 125.652C19.3587 124.851 20.0208 124.116 20.9063 123.448L21.48 123.015ZM21.7942 124.647C20.7175 125.46 20.0558 126.299 19.809 127.164C19.558 128.032 19.7263 128.854 20.314 129.631C20.886 130.387 21.6259 130.765 22.5337 130.765C23.4342 130.764 24.4005 130.383 25.4326 129.624L26.0998 129.12C27.1432 128.333 27.7992 127.495 28.0679 126.607C28.3292 125.718 28.1692 124.889 27.5877 124.121C27.0032 123.349 26.27 122.962 25.3883 122.962C24.5024 122.965 23.5288 123.358 22.4677 124.139L21.7942 124.647Z" fill="#B4B4B4"/>
<path d="M16.6321 112.286L17.7684 114.704L21.935 112.751L22.5762 114.116L12.2764 118.944L10.675 115.535C10.1302 114.376 9.97565 113.361 10.2115 112.491C10.4451 111.617 11.0665 110.943 12.0757 110.47C12.7171 110.169 13.3579 110.082 13.9981 110.207C14.6361 110.328 15.2181 110.642 15.7441 111.149L18.9796 106.682L19.0645 106.642L19.7489 108.099L16.6321 112.286ZM16.6578 115.225L15.6777 113.139C15.3609 112.465 14.9351 112.012 14.4 111.779C13.8628 111.542 13.3017 111.561 12.717 111.835C12.0803 112.133 11.6819 112.553 11.5217 113.094C11.3594 113.63 11.4442 114.257 11.7761 114.976L12.7529 117.055L16.6578 115.225Z" fill="#B4B4B4"/>
<path d="M6.10302 102.599L14.3668 96.9736L4.5015 95.3359L4.08261 93.4363L15.192 90.9927L15.515 92.4575L11.1888 93.4091L6.48886 94.2989L16.2889 95.9669L16.5362 97.0884L8.36562 102.701L12.9804 101.534L17.3067 100.583L17.6297 102.047L6.52022 104.491L6.10302 102.599Z" fill="#B4B4B4"/>
<path d="M12.1532 79.2268L12.0758 83.9918L15.0267 85.1101L15.0016 86.6568L3.69867 82.1292L3.72 80.8169L15.1642 76.6503L15.1392 78.1891L12.1532 79.2268ZM10.8489 83.5187L10.9118 79.652L5.56065 81.503L10.8489 83.5187Z" fill="#B4B4B4"/>
<path d="M7.4048 62.844L6.70807 66.4332L16.6638 68.361L16.3794 69.8259L6.42371 67.8981L5.72847 71.4796L4.51661 71.245L6.19293 62.6093L7.4048 62.844Z" fill="#B4B4B4"/>
<path d="M19.498 58.7826L18.9876 60.1931L8.28825 56.3312L8.79865 54.9207L19.498 58.7826Z" fill="#B4B4B4"/>
<path d="M22.0397 41.9282C23.0063 42.4831 23.7575 43.1304 24.2932 43.8703C24.8244 44.6076 25.1083 45.3831 25.1448 46.1968C25.1814 47.0104 24.971 47.8145 24.5138 48.6091C24.067 49.3855 23.4812 49.965 22.7563 50.3477C22.0268 50.7277 21.2137 50.8825 20.3168 50.812C19.4179 50.7345 18.5007 50.4332 17.565 49.9081L16.8535 49.4998C15.9049 48.9553 15.1618 48.3095 14.6242 47.5626C14.0866 46.8156 13.7985 46.0317 13.7601 45.2109C13.7197 44.383 13.9229 43.5808 14.3697 42.8044C14.8243 42.0144 15.4163 41.4294 16.1457 41.0493C16.8733 40.6622 17.6942 40.5149 18.6085 40.6073C19.5182 40.6971 20.4542 41.0181 21.4163 41.5704L22.0397 41.9282ZM20.6585 42.856C19.4886 42.1844 18.4569 41.9045 17.5634 42.0162C16.6653 42.1253 15.9734 42.6019 15.4877 43.4461C15.0149 44.2677 14.9561 45.0957 15.3112 45.9301C15.6644 46.7574 16.3927 47.4967 17.4961 48.1481L18.2211 48.5642C19.3549 49.215 20.3834 49.4901 21.3066 49.3895C22.2279 49.2817 22.9288 48.8103 23.4094 47.9751C23.8926 47.1355 23.9617 46.3104 23.6169 45.4999C23.2675 44.6868 22.5253 43.9455 21.3903 43.276L20.6585 42.856Z" fill="#B4B4B4"/>
<path d="M36.7258 33.133L35.6974 34.2356L25.3738 32.4527L31.7915 38.4234L30.7631 39.5261L22.4349 31.778L23.4634 30.6754L33.8262 32.4734L27.3799 26.4761L28.3976 25.3849L36.7258 33.133Z" fill="#B4B4B4"/>
</svg>
